<svg width="78" height="78" viewBox="0 0 78 78" fill="none" xmlns="http://www.w3.org/2000/svg">
<g clip-path="url(#clip0_161_11982)">
<path d="M53.7695 5.29739C53.0155 6.60928 52.4469 12.7409 52.2459 18.7349C51.5143 28.7876 52.7721 29.8602 62.9483 32.2224L74.4885 34.8454L65.8358 19.0457C56.9217 2.57204 55.4897 1.05008 53.7695 5.29739Z" fill="black"/>
<path d="M3.26509 17.7359C3.26509 24.2306 1.5699 32.8902 -0.367456 36.7389L-4 43.7147L8.35065 38.6632C15.1314 35.7767 21.1856 32.1685 21.9121 30.4847C23.123 26.8766 11.4989 8.83573 6.65546 6.91137C3.9916 5.9492 3.26509 8.35464 3.26509 17.7359Z" fill="black"/>
<path d="M55.3502 44.345C52.2811 45.626 48.9562 48.1879 47.9332 49.9813C46.3986 52.5433 46.6544 52.7995 49.4677 49.9813C51.2581 48.4441 54.8387 46.907 57.3963 46.907C59.9539 46.907 62 45.626 62 44.345C62 42.8078 61.7442 41.783 61.4885 42.0392C60.977 42.0392 58.1636 43.064 55.3502 44.345Z" fill="black"/>
<path d="M18.2319 52.0243C22.5706 52.6361 28.2429 53.9276 31.0633 54.4364C34.4423 55.4362 34.1 54.6426 29.5722 52.3864C25.8508 50.5929 20.1785 49.3014 16.7092 49.7003C11.0412 50.6297 11.3205 50.8752 18.2319 52.0243Z" fill="black"/>
<path d="M76.4971 65.8538C76.2434 65.5194 73.868 65.1796 71.2794 65.2563C67.0793 64.9534 67.0361 65.2453 71.2766 66.2991C75.5171 67.353 77.5119 67.1913 76.4971 65.8538Z" fill="black"/>
<path d="M66.2454 58.1262C64.4672 61.5283 64.7636 61.7713 67.7273 59.5842C69.8018 57.8832 70.6909 55.9391 69.8018 55.2101C68.9127 54.4811 67.1345 55.6961 66.2454 58.1262Z" fill="black"/>
<path d="M39 60.8896C39 63.5386 43.75 68 46.5 68C48 68 49 66.327 49 64.2357C49 62.2838 48.25 61.029 47.25 61.4473C46.5 62.0049 44.25 61.7261 42.25 60.8896C39.75 59.6348 39 59.7742 39 60.8896Z" fill="black"/>
<path d="M7.32428 79.7238C5.5882 83.1215 5.5882 83.1215 7.79589 80.7084C9.16133 79.25 13.5439 76.8292 17.2884 75.3104L24.2542 72.7765L16.8614 74.4987C11.918 75.5891 8.67092 77.3484 7.32428 79.7238Z" fill="black"/>
<path d="M64.9019 64.736C61.1377 64.4042 61.1377 64.4042 64.3944 63.8372C66.3813 63.4688 70.946 61.1148 74.4052 58.8187L80.6065 54.3961L74.8007 59.5911C70.9674 63.0966 67.613 64.8585 64.9019 64.736Z" fill="black"/>
<path d="M14.7098 65.5C16.3474 66.8889 19.2131 68 20.8506 68C22.8975 68 22.4881 67.1667 19.8271 65.5C14.3004 62.1667 11.0253 62.1667 14.7098 65.5Z" fill="black"/>
<path d="M0.234624 67.7645C-0.370211 68.697 3.06459 69.7776 8.20341 70.1063C23.3587 71.3075 25.3239 70.3406 13.0543 68.0658C6.89891 67.054 1.10059 66.6169 0.234624 67.7645Z" fill="black"/>
<path d="M46.9858 68C52.2106 64.2402 45.4377 56.8459 46.9858 64.4908C41.761 56.8459 39.0518 63.4882 46.9858 68Z" fill="#FF0000"/>
</g>
<defs>
<clipPath id="clip0_161_11982">
<rect width="78" height="78" fill="white"/>
</clipPath>
</defs>
</svg>
